# xmcd
#
# Track frame offsets:
#	150
#	14016
#	28946
#	50482
#	69209
#	81246
#	100945
#	120452
#	135917
#	146580
#	155398
#	171217
#	188429
#	201778
#	214249
#	227889
#
# Disc length: 3217 seconds
#
# Revision: 0
# Processed by: cddbd v1.5.1PL0 Copyright (c) Steve Scherf et al.
# Submitted via: dBpowerAMP V4.0
#
DISCID=d90c8f10
DTITLE=Richard Ray Farrel - Bohemian Life
DYEAR=2002
DGENRE=Blues
TTITLE0=01 - Richard Ray Farrel - Fine Little Number
TTITLE1=02 - Richard Ray Farrel - Cold Heart 
TTITLE2=03 - Richard Ray Farrel - Lawfully Wedded Wife
TTITLE3=04 - Richard Ray Farrel - Natch'l Man
TTITLE4=05 - Richard Ray Farrel - School Of Hard Knocks
TTITLE5=06 - Richard Ray Farrel - Bad Intentions
TTITLE6=07 - Richard Ray Farrel - Jealous Man
TTITLE7=08 - Richard Ray Farrel - Blues All In My Home
TTITLE8=09 - Richard Ray Farrel - Mean Case Of The Blues
TTITLE9=10 - Richard Ray Farrel - Oh Sunny Day
TTITLE10=11 - Richard Ray Farrel - My Heart Beats Just For You
TTITLE11=12 - Richard Ray Farrel - I Was Wrong
TTITLE12=13 - Richard Ray Farrel - The Hard Road
TTITLE13=14 - Richard Ray Farrel - Jitterboppin
TTITLE14=15 - Richard Ray Farrel - You Got It
TTITLE15=16 - Richard Ray Farrel - Bohemian Life
EXTD=
EXTT0=
EXTT1=
EXTT2=
EXTT3=
EXTT4=
EXTT5=
EXTT6=
EXTT7=
EXTT8=
EXTT9=
EXTT10=
EXTT11=
EXTT12=
EXTT13=
EXTT14=
EXTT15=
PLAYORDER=
